<?xml version="1.0" encoding="UTF-8" standalone="no"?>
<svg
   xmlns:dc="http://purl.org/dc/elements/1.1/"
   xmlns:cc="http://creativecommons.org/ns#"
   xmlns:rdf="http://www.w3.org/1999/02/22-rdf-syntax-ns#"
   xmlns:svg="http://www.w3.org/2000/svg"
   xmlns="http://www.w3.org/2000/svg"
   xmlns:sodipodi="http://sodipodi.sourceforge.net/DTD/sodipodi-0.dtd"
   xmlns:inkscape="http://www.inkscape.org/namespaces/inkscape"
   width="210mm"
   height="297mm"
   viewBox="0 0 210 297"
   version="1.1"
   id="svg8"
   inkscape:version="1.0.1 (1.0.1+r74)"
   sodipodi:docname="home.svg">
  <defs
     id="defs2" />
  <sodipodi:namedview
     id="base"
     pagecolor="#ffffff"
     bordercolor="#666666"
     borderopacity="1.0"
     inkscape:pageopacity="0.0"
     inkscape:pageshadow="2"
     inkscape:zoom="1.4"
     inkscape:cx="344.08559"
     inkscape:cy="491.00625"
     inkscape:document-units="mm"
     inkscape:current-layer="layer1"
     inkscape:document-rotation="0"
     showgrid="false"
     inkscape:window-width="1920"
     inkscape:window-height="1015"
     inkscape:window-x="0"
     inkscape:window-y="0"
     inkscape:window-maximized="1" />
  <metadata
     id="metadata5">
    <rdf:RDF>
      <cc:Work
         rdf:about="">
        <dc:format>image/svg+xml</dc:format>
        <dc:type
           rdf:resource="http://purl.org/dc/dcmitype/StillImage" />
        <dc:title></dc:title>
      </cc:Work>
    </rdf:RDF>
  </metadata>
  <g
     inkscape:label="Layer 1"
     inkscape:groupmode="layer"
     id="layer1">
    <path
       style="fill:none;stroke:#000000;stroke-width:3;stroke-linecap:square;stroke-linejoin:miter;stroke-miterlimit:4;stroke-dasharray:none;stroke-opacity:1"
       d="m 109.74985,142.39583 c 2.38078,3.17915 0,22.00544 0,22.00544 0,0 8.39557,-9.47838 20.36312,0 0,0 -10.69954,-28.74945 -5.28134,-33.37478 0,0 13.36739,6.90103 14.27759,-1.76123 1.76877,-16.83324 -27.0803,-35.048538 -40.514651,-35.301683 -13.43435,0.253145 -41.5506,18.468443 -39.781825,35.301673 0.910198,8.66226 14.277583,1.76124 14.277583,1.76124 5.418198,4.62533 -5.281343,33.37477 -5.281343,33.37477 11.967558,-9.47837 20.363121,0 20.363121,0 0,0 -2.380772,-18.82628 0,-22.00544 5.551618,-4.68714 10.788875,-4.84965 10.788875,-4.84965 0,0 5.23726,0.16251 10.78887,4.84966 z"
       id="path839-3"
       sodipodi:nodetypes="cccsscssccccc" />
  </g>
</svg>
